<svg xmlns="http://www.w3.org/2000/svg" viewBox="0 0 100 100">
  <!-- Covault favicon: solid-plate build of the vault-door C (heavier than the
       in-app mark so it reads at 16px). Colors are the ink/paper/seal tokens. -->
  <rect width="100" height="100" rx="12.5" fill="#151311"/>
  <g transform="translate(9,8) scale(0.84)">
    <path d="M 80.64,24.29 A 40,40 0 0 0 44.43,10.39 L 46.38,24.26 A 26,26 0 0 1 69.92,33.29 Z" fill="#e8611f"/>
    <path d="M 41.68,10.88 A 40,40 0 0 0 41.68,89.12 L 44.59,75.43 A 26,26 0 0 1 44.59,24.57 Z" fill="#f0ede4"/>
    <path d="M 44.43,89.61 A 40,40 0 0 0 80.64,75.71 L 69.92,66.71 A 26,26 0 0 1 46.38,75.74 Z" fill="#e8611f"/>
    <g stroke="#f0ede4" stroke-width="3.5" stroke-linecap="round">
      <line x1="50" y1="36.5" x2="50" y2="44"/>
      <line x1="50" y1="56" x2="50" y2="63.5"/>
      <line x1="38.3" y1="43.25" x2="44.8" y2="47"/>
      <line x1="55.2" y1="53" x2="61.7" y2="56.75"/>
      <line x1="38.3" y1="56.75" x2="44.8" y2="53"/>
      <line x1="55.2" y1="47" x2="61.7" y2="43.25"/>
    </g>
    <circle cx="50" cy="50" r="7" fill="none" stroke="#f0ede4" stroke-width="3.5"/>
    <circle cx="50" cy="50" r="2.6" fill="#e8611f"/>
    <rect x="3.5" y="33.5" width="4.5" height="10" rx="2" fill="#f0ede4"/>
    <rect x="3.5" y="56.5" width="4.5" height="10" rx="2" fill="#f0ede4"/>
  </g>
</svg>
